<svg xmlns="http://www.w3.org/2000/svg" width="500" height="500" viewBox="0 0 500 500">
  <metadata><?xpacket begin="﻿" id="W5M0MpCehiHzreSzNTczkc9d"?>
<x:xmpmeta xmlns:x="adobe:ns:meta/" x:xmptk="Adobe XMP Core 5.6-c142 79.160924, 2017/07/13-01:06:39        ">
   <rdf:RDF xmlns:rdf="http://www.w3.org/1999/02/22-rdf-syntax-ns#">
      <rdf:Description rdf:about=""/>
   </rdf:RDF>
</x:xmpmeta>
                                                                                                    
                                                                                                    
                                                                                                    
                                                                                                    
                                                                                                    
                                                                                                    
                                                                                                    
                                                                                                    
                                                                                                    
                                                                                                    
                                                                                                    
                                                                                                    
                                                                                                    
                                                                                                    
                                                                                                    
                                                                                                    
                                                                                                    
                                                                                                    
                                                                                                    
                                                                                                    
                           
<?xpacket end="w"?></metadata>
<defs>
    <style>
      .cls-1 {
        fill: none;
        stroke: #e5261f;
        stroke-width: 45px;
      }

      .cls-1, .cls-2 {
        fill-rule: evenodd;
      }

      .cls-2 {
        fill: #2f2f41;
      }
    </style>
  </defs>
  <path id="多边形_1" data-name="多边形 1" class="cls-1" d="M250.5,27L443.994,138.5v223L250.5,473,57.006,361.5v-223Z"/>
  <path id="D" class="cls-2" d="M219.9,151.04q-12.744.282-22.82,0.56-11.76.282-23.66-.14t-18.9-.7v5.6q8.676,0.282,13.3,2.1a10.106,10.106,0,0,1,6.16,6.72q1.536,4.9,1.54,15.26V319.32q0,10.08-1.54,15.12a9.739,9.739,0,0,1-6.02,6.72q-4.482,1.68-13.44,2.24V349q7-.558,18.9-0.7t24.22-.14q9.24,0,21.7.42T238.52,349q35,0,60.06-12.6t38.22-35.42q13.158-22.818,13.16-53.34,0-46.758-26.88-71.82t-82.04-25.06Q232.64,150.76,219.9,151.04Zm69.02,27.72q14.556,22.962,14.56,70,0,30.522-5.88,51.8T278.14,332.9q-13.584,11.064-37.1,11.06-12.882,0-16.94-4.76t-4.06-19.32v-140q0-14.556,3.92-19.32t16.8-4.76Q274.36,155.8,288.92,178.76Z"/>
</svg>
