<svg xmlns="http://www.w3.org/2000/svg" width="1920" height="420" viewBox="0 0 1920 420">
  <defs>
    <style>
      .cls-1 {
        fill: #2f2f41;
      }

      .cls-1, .cls-2 {
        fill-rule: evenodd;
      }

      .cls-2 {
        fill: #e5261f;
      }
    </style>
  </defs>
  <path id="Torch" class="cls-1" d="M259.948,70.176q-18.7.343-37.23,0.34h-67.49q-18.7,0-37.231-.34T83.828,69.5q1.355,17.34,1.87,33.32t0.51,24.48q0,7.483-.17,14.28a102.553,102.553,0,0,1-.85,11.56h7.82q6.12-28.895,14.28-45.39t19.721-23.46q11.555-6.965,27.2-6.97h7.48v194.14q0,13.6-2.72,20.4t-10.539,9.01q-7.825,2.216-23.121,2.55v6.8q10.2-.335,26.861-0.68t35.359-.34q19.038,0,36.551.34t28.049,0.68v-6.8q-14.964-.334-22.779-2.55t-10.711-9.01q-2.892-6.8-2.889-20.4V77.316h7.819q15.636,0,27.2,6.97t19.889,23.63q8.328,16.664,13.771,45.22h7.819q-0.342-4.756-.68-11.56t-0.339-14.28q0-8.495.509-24.48t1.871-33.32Q278.642,69.839,259.948,70.176Zm95.369,68.68q-18.87,9.18-29.58,29.58t-10.71,54.06q0,33.66,10.71,53.89t29.58,29.41q18.87,9.18,43.01,9.18,24.815,0,43.52-9.18t29.24-29.41q10.535-20.224,10.54-53.89t-10.54-54.06q-10.542-20.4-29.24-29.58t-43.52-9.18Q374.182,129.676,355.317,138.856Zm65.96,17.85q9,20.234,9.01,65.79t-9.01,65.62q-9.012,20.066-22.95,20.06-13.6,0-22.78-20.06t-9.18-65.62q0-45.556,9.18-65.79t22.78-20.23Q412.265,136.476,421.277,156.706Zm178.666-22.78a50.7,50.7,0,0,0-15.64,11.73,62.08,62.08,0,0,0-10.88,16.66V130.7a183.545,183.545,0,0,1-22.95,3.57q-12.415,1.2-26.69,1.19-10.2,0-21.08-1.02v7.14q12.575,0,17.17,7.31t4.59,22.61V278.6q0,14.28-4.93,19.38t-16.83,5.1v7.14q7.14-.335,21.08-0.85t27.54-.51q16.32,0,31.28.51t22.78,0.85v-7.14q-15.986,0-23.97-5.78t-7.99-22.1V185.1a47.254,47.254,0,0,1,4.08-18.7,52.067,52.067,0,0,1,11.05-16.49,28.089,28.089,0,0,1,15.81-8.33,15.26,15.26,0,0,1,9.52-.34,40.146,40.146,0,0,0-10.71,10.71q-4.255,6.3-4.25,15.81,0,9.865,6.63,15.81t18.53,5.95q11.9,0,19.21-7.99t7.31-20.57a35.923,35.923,0,0,0-3.23-14.96,27.834,27.834,0,0,0-10.03-11.73q-6.805-4.59-17.68-4.59A44.938,44.938,0,0,0,599.943,133.926Zm106.758,6.29q-19.045,10.543-30.09,31.45t-11.05,51.51q0,31.964,10.71,52.19t28.56,29.92q17.85,9.69,39.95,9.69,19.715,0,33.32-7.99a67.52,67.52,0,0,0,22.1-20.57,91.984,91.984,0,0,0,12.24-25.16l-5.78-2.04q-10.542,17.005-22.78,22.27t-21.76,5.27a41.891,41.891,0,0,1-21.59-6.12q-10.375-6.12-17-21.08t-6.63-41.14a164.925,164.925,0,0,1,2.89-31.96,100.444,100.444,0,0,1,8.33-25.5q5.435-10.876,13.43-17a29.614,29.614,0,0,1,18.53-6.12,30.307,30.307,0,0,1,12.24,2.38,21.069,21.069,0,0,1,8.16,5.78,32.8,32.8,0,0,0-15.64,9.69q-6.806,7.315-6.8,18.19,0,11.564,7.14,18.36t19.04,6.8q11.9,0,19.38-7.65t7.48-19.55a34.6,34.6,0,0,0-4.93-18.53,41.23,41.23,0,0,0-13.77-13.43,66.96,66.96,0,0,0-18.19-7.31,96.148,96.148,0,0,0-24.31-2.89Q725.736,129.676,706.7,140.216Zm169.316-92.31q-12.583,1.2-26.52,1.19-10.2,0-21.08-1.02v7.14q12.574,0,17.17,7.31t4.59,22.61V278.6q0,14.28-4.93,19.38t-16.83,5.1v7.14q6.8-.335,20.23-0.85t26.69-.51q12.24,0,24.14.51t18.02,0.85v-7.14q-10.2,0-14.28-5.1t-4.08-19.38v-94.86q0-17.34,9.86-28.22t23.8-10.88q8.495,0,13.09,3.57a18.039,18.039,0,0,1,6.29,9.86,57.214,57.214,0,0,1,1.7,14.79V278.6q0,14.28-4.08,19.38t-14.28,5.1v7.14q6.12-.335,18.53-0.85t25.67-.51q12.24,0,25.333.51t19.55,0.85v-7.14q-11.91,0-16.83-5.1t-4.93-19.38v-91.46q0-17.34-2.55-27.54a38.578,38.578,0,0,0-8.333-16.66,34.55,34.55,0,0,0-13.94-9.69q-8.846-3.57-23.46-3.57a73.815,73.815,0,0,0-32.47,6.97q-14.455,6.974-22.95,24.65V44.336A183.372,183.372,0,0,1,876.017,47.906Z"/>
  <path id="Drug" class="cls-2" d="M1119.62,69.836q-15.48.343-27.71,0.68-14.28.343-28.73-.17t-22.95-.85v6.8q10.53,0.343,16.15,2.55a12.277,12.277,0,0,1,7.48,8.16q1.86,5.953,1.87,18.53v168.64q0,12.24-1.87,18.36a11.837,11.837,0,0,1-7.31,8.16q-5.445,2.04-16.32,2.72v6.8q8.49-.677,22.95-0.85t29.41-.17q11.22,0,26.35.51t23.29,0.51q42.495,0,72.93-15.3,30.42-15.3,46.41-43.01t15.98-64.77q0-56.776-32.64-87.21T1145.29,69.5Q1135.09,69.5,1119.62,69.836Zm83.81,33.66q17.67,27.884,17.68,85,0,37.064-7.14,62.9t-23.63,39.27q-16.5,13.435-45.05,13.43-15.645,0-20.57-5.78t-4.93-23.46v-170q0-17.674,4.76-23.46t20.4-5.78Q1185.75,75.616,1203.43,103.5Zm194.47,30.43a50.655,50.655,0,0,0-15.64,11.73,62.008,62.008,0,0,0-10.88,16.66V130.7a183.6,183.6,0,0,1-22.95,3.57q-12.42,1.2-26.69,1.19-10.2,0-21.08-1.02v7.14q12.57,0,17.17,7.31t4.59,22.61V278.6q0,14.28-4.93,19.38t-16.83,5.1v7.14q7.14-.335,21.08-0.85t27.54-.51q16.32,0,31.28.51t22.78,0.85v-7.14q-15.99,0-23.97-5.78t-7.99-22.1V185.1a47.254,47.254,0,0,1,4.08-18.7,52.05,52.05,0,0,1,11.05-16.49,28.07,28.07,0,0,1,15.81-8.33,15.259,15.259,0,0,1,9.52-.34,40.088,40.088,0,0,0-10.71,10.71q-4.26,6.3-4.25,15.81,0,9.865,6.63,15.81t18.53,5.95q11.895,0,19.21-7.99t7.31-20.57a35.954,35.954,0,0,0-3.23-14.96,27.862,27.862,0,0,0-10.03-11.73q-6.81-4.59-17.68-4.59A44.926,44.926,0,0,0,1397.9,133.926Zm207.91,0.34q-12.42,1.2-26.69,1.19-10.2,0-21.08-1.02v7.14q12.57,0,17.17,7.31t4.59,22.61v89.08q0,16.664-9.69,28.05t-23.29,11.39q-8.5,0-12.92-3.57a17.611,17.611,0,0,1-5.95-10.03,65.3,65.3,0,0,1-1.53-14.96V130.7a183.6,183.6,0,0,1-22.95,3.57q-12.42,1.2-26.69,1.19-10.2,0-21.08-1.02v7.14q12.57,0,17.17,7.31t4.59,22.61v86.02q0,16.663,2.38,27.2t8.16,17a37.781,37.781,0,0,0,13.94,9.52q8.835,3.738,23.12,3.74a70.208,70.208,0,0,0,32.13-7.31q14.445-7.306,22.61-24.31v30.6a144.5,144.5,0,0,1,23.12-3.74q12.24-1.02,26.52-1.02,10.53,0,21.08,1.02v-7.14q-12.24,0-17-7.31t-4.76-22.61V130.7A183.6,183.6,0,0,1,1605.81,134.266Zm181.73,231.2q22.1-8.67,32.81-22.95t10.71-30.94q0-24.137-18.7-34.51t-46.92-10.37h-37.06q-13.605,0-13.6-10.88a14.49,14.49,0,0,1,5.61-11.73c3.74-3.06,3.76-3.95,8.07-6.67L1720,237c-14.74,6.348-16.78,8.845-24.26,16.1s-11.22,15.64-11.22,25.16q0,10.2,5.78,16.83t16.15,9.69a86.24,86.24,0,0,0,24.31,3.06h21.08q22.44,0,29.92,6.97a22.563,22.563,0,0,1,7.48,17.17q0,11.9-6.97,20.06t-19.04,12.24a85.26,85.26,0,0,1-27.37,4.08q-22.44,0-35.53-7.65t-13.09-21.93a28.01,28.01,0,0,1,2.89-12.41,32.179,32.179,0,0,1,9.35-11.05l-3.06-5.44q-18.7,4.758-28.22,13.09t-9.52,18.87q0,10.536,9.35,17.85t25.84,10.88a178.432,178.432,0,0,0,37.57,3.57Q1765.43,374.136,1787.54,365.466Zm-4.25-140.76q19.2-13.084,19.21-40.97,0-28.216-19.21-41.14t-48.45-12.92q-28.9,0-48.28,12.92t-19.38,41.14q0,27.883,19.38,40.97t48.28,13.09Q1764.075,237.8,1783.29,224.706Zm-62.56-3.4q-5.28-10.367-5.27-37.57t5.27-37.57Q1726,135.8,1734.84,135.8q9.18,0,14.28,10.37t5.1,37.57q0,27.206-5.1,37.57t-14.28,10.37Q1725.99,231.676,1720.73,221.306Zm78.37-79.22c4.36-4.124,10.76-7.873,19.38-11.05L1815,132c-4.31,8.84-5.14,13.035-4.68,18.586s2.32,9.69,5.61,12.41a16.435,16.435,0,0,0,10.71,4.08,17.763,17.763,0,0,0,12.24-4.93q5.43-4.924,5.44-15.13,0-9.514-5.61-15.47t-16.49-5.95c-8.84,0-16.95,3.1-24.65,8.84-4.23,3.147-7.42,5.786-10.57,12.564l5.88,3.916C1795.11,145.268,1796.54,144.5,1799.1,142.086Z"/>
</svg>
