<svg xmlns="http://www.w3.org/2000/svg" width="64" height="64" viewBox="0 0 64 64">
  <defs>
    <style>
      .cls-1 {
        fill: none;
        stroke: #e5261f;
        stroke-width: 5.236px;
      }

      .cls-1, .cls-2 {
        fill-rule: evenodd;
      }

      .cls-2 {
        fill: #2f2f41;
      }
    </style>
  </defs>
  <path id="多边形_1" data-name="多边形 1" class="cls-1" d="M32,3.142L57.017,17.571V46.429L32,60.858,6.983,46.429V17.571Z"/>
  <path id="D" class="cls-2" d="M28.5,20.485q-1.483.033-2.655,0.065-1.368.033-2.753-.016t-2.2-.081V21.1a4.845,4.845,0,0,1,1.548.244,1.176,1.176,0,0,1,.717.782,6.429,6.429,0,0,1,.179,1.776V40.066a6.452,6.452,0,0,1-.179,1.759,1.133,1.133,0,0,1-.7.782,5.75,5.75,0,0,1-1.564.261V43.52q0.814-.065,2.2-0.082t2.818-.016q1.075,0,2.525.049t2.232,0.049a15.4,15.4,0,0,0,6.989-1.466A10.363,10.363,0,0,0,42.1,37.932a12.206,12.206,0,0,0,1.531-6.207q0-5.441-3.128-8.357t-9.547-2.916Q29.98,20.452,28.5,20.485Zm8.032,3.226q1.694,2.672,1.694,8.145a22.915,22.915,0,0,1-.684,6.028,7.13,7.13,0,0,1-2.264,3.763,6.641,6.641,0,0,1-4.317,1.287,2.584,2.584,0,0,1-1.971-.554,3.693,3.693,0,0,1-.473-2.248V23.841a3.8,3.8,0,0,1,.456-2.248,2.526,2.526,0,0,1,1.955-.554Q34.835,21.039,36.529,23.71Z"/>
</svg>
