<svg width="529" height="540" xmlns="http://www.w3.org/2000/svg" xmlns:xlink="http://www.w3.org/1999/xlink" overflow="hidden"><defs><clipPath id="clip0"><path d="M0 0 529 0 529 540 0 540Z" fill-rule="evenodd" clip-rule="evenodd"/></clipPath></defs><g clip-path="url(#clip0)"><rect x="0" y="0" width="529" height="539.83" fill="#FFFFFF" transform="scale(1 1.00032)"/><path d="M576.309 0C560.605 0 550.979 16.2044 542.002 32.4547 532.795 49.334 524.724 68.6875 510.018 78.3596 501.547 83.9141 492.314 85.4611 482.742 85.4611 470.721 85.4611 458.163 83.0235 445.91 83.0235 441.586 83.0235 437.305 83.3265 433.096 84.1436 407.485 89.1427 387.019 112.963 372.884 139.252 358.746 165.547 349.235 195.1 334.749 221.128 327.07 235.065 317.251 248.368 304.076 253.519 298.107 255.828 291.902 256.282 285.625 256.282 281.5 256.282 277.348 256.085 273.212 256.085 271.586 256.085 269.959 256.117 268.34 256.204 241.811 257.673 216.245 275.03 201.585 301.636 189.411 323.671 181.032 354.482 159.347 358.953 157.702 359.293 156.068 359.449 154.445 359.449 142.413 359.449 130.948 350.869 119.989 343.965 105.283 334.642 88.5809 327.954 72.1833 327.954 65.1825 327.954 58.2426 329.17 51.5312 331.924 31.5914 340.128 16.5384 361.111 8.50919 384.563 0.483736 408.067 0.00380895 437.198 0.00380895 462.547 26.316 462.781 53.3329 462.854 80.7268 462.854 127.383 462.854 175.135 462.638 222.374 462.638 228.384 462.638 234.384 462.643 240.371 462.652L578 462.652 578 442.142 578 432.153 578 199.466 578 100.867 578 0.0642668C577.429 0.0229524 576.865 0 576.309 0Z" fill="#F88379" fill-rule="evenodd" transform="matrix(1 0 -0 1.00032 41 77)"/><path d="M0.494935 0 0 162.51 63.5051 198.937 63.995 36.4275 0.494935 0Z" fill="#F99991" fill-rule="evenodd" transform="matrix(-1 -8.74228e-08 -8.74503e-08 1.00032 381 212)"/><path d="M65.995 0.00490511 0.496614 37.5682 0.00496614 199.937 0.00496614 199.937 65.5034 162.369 65.995 0.00490511Z" fill="#F76D61" fill-rule="evenodd" transform="matrix(-1 -8.74228e-08 -8.74503e-08 1.00032 318 211)"/><path d="M64.8781 0.00497191 0.0049191 38.0798 63.117 74.9714 127.995 36.8965 64.8781 0.00497191Z" fill="#FCC6C2" fill-rule="evenodd" transform="matrix(-1 -8.74228e-08 -8.74503e-08 1.00032 380 174)"/><path d="M0.483994 0 0.00483994 41.6097 56.7096 74.9714 57 33.3667 0.483994 0Z" fill="#F99991" fill-rule="evenodd" transform="matrix(-1 -8.74228e-08 -8.74503e-08 1.00032 378 141)"/><path d="M59.995 0 0.297619 34.4105 0 75.9711 59.6974 41.5656 59.995 0Z" fill="#F76D61" fill-rule="evenodd" transform="matrix(-1 -8.74228e-08 -8.74503e-08 1.00032 321 140)"/><path d="M59.2845 0.00494498 0.00493379 34.5308 57.6168 67.9786 116.995 33.4478 59.2845 0.00494498Z" fill="#FCC6C2" fill-rule="evenodd" transform="matrix(-1 -8.74228e-08 -8.74503e-08 1.00032 378 107)"/><path d="M0 0.00490663 0.980046 145.83 58 177.939 57.02 32.1188 0 0.00490663Z" stroke="#F99991" stroke-linejoin="round" stroke-miterlimit="10" fill="#F99991" fill-rule="evenodd" transform="matrix(-1 -8.74228e-08 -8.74503e-08 1.00032 282.5 283.5)"/><path d="M58.0181 0 0.00493435 34.2355 0.98687 179.938 58.9951 145.61 58.0181 0Z" stroke="#F76D61" stroke-linejoin="round" stroke-miterlimit="10" fill="#F76D61" fill-rule="evenodd" transform="matrix(-1 -8.74228e-08 -8.74503e-08 1.00032 225.5 281.5)"/><path d="M57.9411 0 0 34.0577 57.0589 65.9792 115 31.9215 57.9411 0Z" stroke="#FCC6C2" stroke-linejoin="round" stroke-miterlimit="10" fill="#FCC6C2" fill-rule="evenodd" transform="matrix(-1 -8.74228e-08 -8.74503e-08 1.00032 282.5 249.5)"/><path d="M0.418752 0.00726304 0 41.5228 58.5739 74.9691 58.9926 33.3737 0.418752 0.00726304Z" fill="#F76D61" fill-rule="evenodd" transform="matrix(1 0 -0 1.00032 291 416)"/><path d="M59.9927 0.00724755 0.422433 34.4621 0.00728332 75.9688 59.5776 41.514 59.9927 0.00724755Z" fill="#F99991" fill-rule="evenodd" transform="matrix(1 0 -0 1.00032 349 415)"/><path d="M59.2424 0 0 34.0627 57.7503 66.9789 116.993 32.9162 59.2424 0Z" fill="#FBB0A9" fill-rule="evenodd" transform="matrix(1 0 -0 1.00032 292 382)"/></g></svg>