<svg width="983" height="359" xmlns="http://www.w3.org/2000/svg" xmlns:xlink="http://www.w3.org/1999/xlink" overflow="hidden"><defs><clipPath id="clip0"><rect x="0" y="0" width="983" height="359"/></clipPath></defs><g clip-path="url(#clip0)"><rect x="0" y="0" width="983" height="358.878" fill="#FFFFFF"/><path d="M897.306 230.922 897.306 201.436 31 201.436 31 157.442 897.306 157.442 897.306 127.957 952 179.439Z" stroke="#000000" stroke-width="8" stroke-miterlimit="8" fill="#E5261F" fill-rule="evenodd"/><path d="M86 155.947C86 149.322 91.3726 143.951 98.0002 143.951L234 143.951C240.627 143.951 246 149.322 246 155.947L246 203.931C246 210.556 240.627 215.927 234 215.927L98.0002 215.927C91.3726 215.927 86 210.556 86 203.931Z" stroke="#000000" stroke-width="6.00204" stroke-miterlimit="8" fill="#FFFFFF" fill-rule="evenodd"/><text font-family="Playfair Display,Playfair Display_MSFontService,sans-serif" font-weight="400" font-size="25" transform="matrix(1 0 0 0.999661 141.757 190)">data</text><path d="M291 155.947C291 149.322 296.373 143.951 303 143.951L439 143.951C445.627 143.951 451 149.322 451 155.947L451 203.931C451 210.556 445.627 215.927 439 215.927L303 215.927C296.373 215.927 291 210.556 291 203.931Z" stroke="#000000" stroke-width="6.00204" stroke-miterlimit="8" fill="#FFFFFF" fill-rule="evenodd"/><text font-family="Playfair Display,Playfair Display_MSFontService,sans-serif" font-weight="400" font-size="25" transform="matrix(1 0 0 0.999661 336.511 190)">layers</text><path d="M495 155.947C495 149.322 500.373 143.951 507 143.951L643 143.951C649.627 143.951 655 149.322 655 155.947L655 203.931C655 210.556 649.627 215.927 643 215.927L507 215.927C500.373 215.927 495 210.556 495 203.931Z" stroke="#000000" stroke-width="6.00204" stroke-miterlimit="8" fill="#FFFFFF" fill-rule="evenodd"/><text font-family="Playfair Display,Playfair Display_MSFontService,sans-serif" font-weight="400" font-size="25" transform="matrix(1 0 0 0.999661 533.767 190)">models</text><path d="M699 155.947C699 149.322 704.373 143.951 711 143.951L847 143.951C853.627 143.951 859 149.322 859 155.947L859 203.931C859 210.556 853.627 215.927 847 215.927L711 215.927C704.373 215.927 699 210.556 699 203.931Z" stroke="#000000" stroke-width="6.00204" stroke-miterlimit="8" fill="#FFFFFF" fill-rule="evenodd"/><text font-family="Playfair Display,Playfair Display_MSFontService,sans-serif" font-weight="400" font-size="25" transform="matrix(1 0 0 0.999661 750.112 190)">tasks</text><path d="M86 265.91C86 259.285 91.3726 253.914 98.0002 253.914L234 253.914C240.627 253.914 246 259.285 246 265.91L246 313.893C246 320.519 240.627 325.889 234 325.889L98.0002 325.889C91.3726 325.889 86 320.519 86 313.893Z" stroke="#000000" stroke-width="6.00204" stroke-miterlimit="8" fill="#FFFFFF" fill-rule="evenodd"/><text font-family="Playfair Display,Playfair Display_MSFontService,sans-serif" font-weight="400" font-size="25" transform="matrix(1 0 0 0.999661 119.499 299)">datasets</text><path d="M169.001 215.927 169.001 238.409 162.999 238.409 162.999 215.927ZM175.003 235.409 166 253.409 156.997 235.409Z"/><path d="M291 265.91C291 259.285 296.373 253.914 303 253.914L439 253.914C445.627 253.914 451 259.285 451 265.91L451 313.893C451 320.519 445.627 325.889 439 325.889L303 325.889C296.373 325.889 291 320.519 291 313.893Z" stroke="#000000" stroke-width="6.00204" stroke-miterlimit="8" fill="#FFFFFF" fill-rule="evenodd"/><text font-family="Playfair Display,Playfair Display_MSFontService,sans-serif" font-weight="400" font-size="25" transform="matrix(1 0 0 0.999661 327.175 299)">metrics</text><path d="M86 45.818C86 39.2847 91.2981 33.9885 97.8336 33.9885L234.166 33.9885C240.702 33.9885 246 39.2847 246 45.818L246 93.1348C246 99.6681 240.702 104.964 234.166 104.964L97.8336 104.964C91.2981 104.964 86 99.6681 86 93.1348Z" stroke="#000000" stroke-width="6.00204" stroke-miterlimit="8" fill="#FFFFFF" fill-rule="evenodd"/><text font-family="Playfair Display,Playfair Display_MSFontService,sans-serif" font-weight="400" font-size="25" transform="matrix(1 0 0 0.999661 102.827 79)">transforms</text><path d="M3-8.13162e-06 3.00006 23.7328-2.99994 23.7328-3 8.13162e-06ZM9.00006 20.7328 0.000104987 38.7328-8.99994 20.7328Z" transform="matrix(1.00034 0 0 -1 166 143.697)"/><path d="M3-8.40289e-06 3.00006 22.4824-2.99994 22.4824-3 8.40289e-06ZM9.00005 19.4824 0.000104987 37.4824-8.99994 19.4824Z" transform="matrix(-1.00034 0 0 1 371 215.927)"/></g></svg>