<svg width="945" height="586" xmlns="http://www.w3.org/2000/svg" xmlns:xlink="http://www.w3.org/1999/xlink" overflow="hidden"><defs><clipPath id="clip0"><rect x="0" y="0" width="945" height="586"/></clipPath></defs><g clip-path="url(#clip0)"><rect x="0" y="0" width="945" height="586.063" fill="#FFFFFF"/><path d="M191.5 231.525 220.5 218.524 249.5 231.525 235 231.525 235 244.526 206 244.526 206 231.525Z" stroke="#7F7F7F" stroke-width="1.33357" stroke-miterlimit="8" fill="#E7E6E6" fill-rule="evenodd"/><path d="M191.5 350.538 220 337.537 248.5 350.538 234.25 350.538 234.25 363.539 205.75 363.539 205.75 350.538Z" stroke="#7F7F7F" stroke-width="1.33357" stroke-miterlimit="8" fill="#E7E6E6" fill-rule="evenodd"/><path d="M695.5 231.525 724.5 218.524 753.5 231.525 739 231.525 739 244.527 710 244.527 710 231.525Z" stroke="#7F7F7F" stroke-width="1.33357" stroke-miterlimit="8" fill="#E7E6E6" fill-rule="evenodd"/><path d="M443 262.528 456.5 291.031 443 319.535 443 305.283 429.5 305.283 429.5 276.78 443 276.78Z" stroke="#7F7F7F" stroke-width="1.33371" stroke-miterlimit="8" fill="#E7E6E6" fill-rule="evenodd"/><path d="M190.5 509.555 219.5 496.554 248.5 509.555 234 509.555 234 522.557 205 522.557 205 509.555Z" stroke="#7F7F7F" stroke-width="1.33357" stroke-miterlimit="8" fill="#E7E6E6" fill-rule="evenodd"/><path d="M444.5 401.543 457.5 430.046 444.5 458.549 444.5 444.298 431.5 444.298 431.5 415.795 444.5 415.795Z" stroke="#7F7F7F" stroke-width="1.33371" stroke-miterlimit="8" fill="#E7E6E6" fill-rule="evenodd"/><path d="M684.5 401.543 697.5 430.046 684.5 458.55 684.5 444.298 671.5 444.298 671.5 415.795 684.5 415.795Z" stroke="#7F7F7F" stroke-width="1.33371" stroke-miterlimit="8" fill="#E7E6E6" fill-rule="evenodd"/><path d="M13.5 531.224C13.5 526.437 17.3801 522.557 22.1665 522.557L636.833 522.557C641.62 522.557 645.5 526.437 645.5 531.224L645.5 565.895C645.5 570.682 641.62 574.562 636.833 574.562L22.1665 574.562C17.3801 574.562 13.5 570.682 13.5 565.895Z" stroke="#7F7F7F" stroke-width="1.33357" stroke-miterlimit="8" fill="#E7E6E6" fill-rule="evenodd"/><path d="M25.5 538.558C25.5 535.796 27.7386 533.558 30.5001 533.558L195.5 533.558C198.261 533.558 200.5 535.796 200.5 538.558L200.5 558.56C200.5 561.322 198.261 563.561 195.5 563.561L30.5001 563.561C27.7386 563.561 25.5 561.322 25.5 558.56Z" stroke="#7F7F7F" stroke-width="1.33357" stroke-miterlimit="8" fill="#F2F2F2" fill-rule="evenodd"/><text font-family="Calibri,Calibri_MSFontService,sans-serif" font-weight="400" font-size="19" transform="matrix(1 0 0 1.00011 82.5552 554)">PyTorch</text><path d="M241.5 539.392C241.5 536.722 243.664 534.558 246.333 534.558L411.667 534.558C414.336 534.558 416.5 536.722 416.5 539.392L416.5 558.727C416.5 561.397 414.336 563.561 411.667 563.561L246.333 563.561C243.664 563.561 241.5 561.397 241.5 558.727Z" stroke="#7F7F7F" stroke-width="1.33357" stroke-miterlimit="8" fill="#F2F2F2" fill-rule="evenodd"/><text font-family="Calibri,Calibri_MSFontService,sans-serif" font-weight="400" font-size="19" transform="matrix(1 0 0 1.00011 279.93 555)">torch<tspan font-size="19" x="39.887" y="0">-</tspan><tspan font-size="19" x="45.5547" y="0">scatter</tspan></text><path d="M458.5 540.392C458.5 537.722 460.664 535.558 463.333 535.558L627.667 535.558C630.336 535.558 632.5 537.722 632.5 540.392L632.5 559.727C632.5 562.397 630.336 564.561 627.667 564.561L463.333 564.561C460.664 564.561 458.5 562.397 458.5 559.727Z" stroke="#7F7F7F" stroke-width="1.33357" stroke-miterlimit="8" fill="#F2F2F2" fill-rule="evenodd"/><text font-family="Calibri,Calibri_MSFontService,sans-serif" font-weight="400" font-size="19" transform="matrix(1 0 0 1.00011 523.981 555)">RDKit</text><path d="M14.5 386.542C14.5 374.39 24.35 364.539 36.5006 364.539L409.499 364.539C421.65 364.539 431.5 374.39 431.5 386.542L431.5 474.551C431.5 486.703 421.65 496.554 409.499 496.554L36.5006 496.554C24.35 496.554 14.5 486.703 14.5 474.551Z" stroke="#7F7F7F" stroke-width="1.33357" stroke-miterlimit="8" fill="#F8CBAD" fill-rule="evenodd"/><path d="M210.5 424.879 235.013 424.879 235.013 426.213 210.5 426.213ZM227.348 420.302 236.337 425.546 227.348 430.79C227.03 430.976 226.622 430.868 226.436 430.55 226.25 430.232 226.358 429.824 226.676 429.638L234.677 424.97 234.677 426.122 226.676 421.454C226.358 421.269 226.251 420.86 226.436 420.542 226.622 420.224 227.03 420.117 227.348 420.302Z" fill="#7F7F7F"/><path d="M234.5 388.097C234.5 380.61 240.569 374.54 248.055 374.54L406.945 374.54C414.431 374.54 420.5 380.61 420.5 388.097L420.5 469.996C420.5 477.483 414.431 483.552 406.945 483.552L248.055 483.552C240.569 483.552 234.5 477.483 234.5 469.996Z" stroke="#7F7F7F" stroke-width="1.33357" stroke-miterlimit="8" fill="#FBE5D6" fill-rule="evenodd"/><text font-family="Calibri,Calibri_MSFontService,sans-serif" font-weight="400" font-size="19" transform="matrix(1 0 0 1.00011 291.595 395)">Molecule</text><path d="M245.5 412.211C245.5 409.634 247.589 407.544 250.167 407.544L406.833 407.544C409.411 407.544 411.5 409.634 411.5 412.211L411.5 430.88C411.5 433.457 409.411 435.547 406.833 435.547L250.167 435.547C247.589 435.547 245.5 433.457 245.5 430.88Z" stroke="#7F7F7F" stroke-width="1.33357" stroke-miterlimit="8" fill="#F2F2F2" fill-rule="evenodd"/><text font-family="Consolas,Consolas_MSFontService,sans-serif" font-weight="400" font-size="16" transform="matrix(1 0 0 1.00011 270.157 427)">from_smiles()</text><path d="M245.5 450.215C245.5 447.638 247.589 445.548 250.167 445.548L406.833 445.548C409.411 445.548 411.5 447.638 411.5 450.215L411.5 468.884C411.5 471.462 409.411 473.551 406.833 473.551L250.167 473.551C247.589 473.551 245.5 471.462 245.5 468.884Z" stroke="#7F7F7F" stroke-width="1.33357" stroke-miterlimit="8" fill="#F2F2F2" fill-rule="evenodd"/><text font-family="Consolas,Consolas_MSFontService,sans-serif" font-weight="400" font-size="16" transform="matrix(1 0 0 1.00011 279.591 464)">visualize()</text><path d="M24.5 387.221C24.5 379.666 30.6245 373.54 38.1795 373.54L195.82 373.54C203.376 373.54 209.5 379.666 209.5 387.221L209.5 469.871C209.5 477.427 203.376 483.552 195.82 483.552L38.1795 483.552C30.6245 483.552 24.5 477.427 24.5 469.871Z" stroke="#7F7F7F" stroke-width="1.33357" stroke-miterlimit="8" fill="#FBE5D6" fill-rule="evenodd"/><text font-family="Calibri,Calibri_MSFontService,sans-serif" font-weight="400" font-size="19" transform="matrix(1 0 0 1.00011 93.1731 394)">Graph</text><path d="M34.5 411.211C34.5 408.634 36.5895 406.544 39.1669 406.544L195.833 406.544C198.411 406.544 200.5 408.634 200.5 411.211L200.5 429.88C200.5 432.457 198.411 434.547 195.833 434.547L39.1669 434.547C36.5895 434.547 34.5 432.457 34.5 429.88Z" stroke="#7F7F7F" stroke-width="1.33357" stroke-miterlimit="8" fill="#F2F2F2" fill-rule="evenodd"/><text font-family="Consolas,Consolas_MSFontService,sans-serif" font-weight="400" font-size="16" transform="matrix(1 0 0 1.00011 68.3947 426)">node_mask()</text><path d="M35.5 449.215C35.5 446.638 37.5894 444.548 40.1669 444.548L196.833 444.548C199.411 444.548 201.5 446.638 201.5 449.215L201.5 467.884C201.5 470.461 199.411 472.551 196.833 472.551L40.1669 472.551C37.5894 472.551 35.5 470.461 35.5 467.884Z" stroke="#7F7F7F" stroke-width="1.33357" stroke-miterlimit="8" fill="#F2F2F2" fill-rule="evenodd"/><text font-family="Consolas,Consolas_MSFontService,sans-serif" font-weight="400" font-size="16" transform="matrix(1 0 0 1.00011 68.9939 463)">edge_mask()</text><path d="M698.5 379.373C698.5 370.628 705.588 363.539 714.332 363.539L913.668 363.539C922.412 363.539 929.5 370.628 929.5 379.373L929.5 480.72C929.5 489.465 922.412 496.554 913.668 496.554L714.332 496.554C705.588 496.554 698.5 489.465 698.5 480.72Z" stroke="#7F7F7F" stroke-width="1.33357" stroke-miterlimit="8" fill="#C5E0B4" fill-rule="evenodd"/><path d="M707.5 377.708C707.5 374.854 709.813 372.54 712.667 372.54L915.333 372.54C918.187 372.54 920.5 374.854 920.5 377.708L920.5 398.376C920.5 401.23 918.187 403.544 915.333 403.544L712.667 403.544C709.813 403.544 707.5 401.23 707.5 398.376Z" stroke="#7F7F7F" stroke-width="1.33357" stroke-miterlimit="8" fill="#E2F0D9" fill-rule="evenodd"/><text font-family="Calibri,Calibri_MSFontService,sans-serif" font-weight="400" font-size="19" transform="matrix(1 0 0 1.00011 742.916 393)">Molecule Datasets</text><path d="M707.5 418.879C707.5 415.933 709.888 413.545 712.833 413.545L914.167 413.545C917.112 413.545 919.5 415.933 919.5 418.879L919.5 440.214C919.5 443.16 917.112 445.548 914.167 445.548L712.833 445.548C709.888 445.548 707.5 443.16 707.5 440.214Z" stroke="#7F7F7F" stroke-width="1.33357" stroke-miterlimit="8" fill="#E2F0D9" fill-rule="evenodd"/><text font-family="Calibri,Calibri_MSFontService,sans-serif" font-weight="400" font-size="19" transform="matrix(1 0 0 1.00011 722.816 435)">Retrosynthesis Datasets</text><path d="M708.5 461.883C708.5 458.937 710.888 456.549 713.833 456.549L915.167 456.549C918.112 456.549 920.5 458.937 920.5 461.883L920.5 483.219C920.5 486.165 918.112 488.553 915.167 488.553L713.833 488.553C710.888 488.553 708.5 486.165 708.5 483.219Z" stroke="#7F7F7F" stroke-width="1.33357" stroke-miterlimit="8" fill="#E2F0D9" fill-rule="evenodd"/><text font-family="Calibri,Calibri_MSFontService,sans-serif" font-weight="400" font-size="19" transform="matrix(1 0 0 1.00011 743.156 478)">Knowledge Graphs</text><path d="M457.5 386.375C457.5 374.316 467.275 364.539 479.334 364.539L649.666 364.539C661.725 364.539 671.5 374.316 671.5 386.375L671.5 473.717C671.5 485.777 661.725 495.554 649.666 495.554L479.334 495.554C467.275 495.554 457.5 485.777 457.5 473.717Z" stroke="#7F7F7F" stroke-width="1.33357" stroke-miterlimit="8" fill="#C5E0B4" fill-rule="evenodd"/><path d="M468.5 386.209C468.5 381.974 471.932 378.541 476.167 378.541L653.833 378.541C658.067 378.541 661.5 381.974 661.5 386.209L661.5 416.878C661.5 421.113 658.067 424.546 653.833 424.546L476.167 424.546C471.932 424.546 468.5 421.113 468.5 416.878Z" stroke="#7F7F7F" stroke-width="1.33357" stroke-miterlimit="8" fill="#E2F0D9" fill-rule="evenodd"/><text font-family="Calibri,Calibri_MSFontService,sans-serif" font-weight="400" font-size="16" transform="matrix(1 0 0 1.00011 490.459 407)">Graph Transformations</text><path d="M468.5 445.215C468.5 440.98 471.933 437.547 476.167 437.547L654.833 437.547C659.068 437.547 662.5 440.98 662.5 445.215L662.5 475.885C662.5 480.119 659.068 483.552 654.833 483.552L476.167 483.552C471.933 483.552 468.5 480.119 468.5 475.885Z" stroke="#7F7F7F" stroke-width="1.33357" stroke-miterlimit="8" fill="#E2F0D9" fill-rule="evenodd"/><text font-family="Calibri,Calibri_MSFontService,sans-serif" font-weight="400" font-size="16" transform="matrix(1 0 0 1.00011 480.454 465)">Molecule Transformations</text><path d="M17.5 255.482C17.5 249.431 22.4044 244.526 28.4542 244.526L418.546 244.526C424.596 244.526 429.5 249.431 429.5 255.482L429.5 326.581C429.5 332.632 424.596 337.537 418.546 337.537L28.4542 337.537C22.4044 337.537 17.5 332.632 17.5 326.581Z" stroke="#7F7F7F" stroke-width="1.33357" stroke-miterlimit="8" fill="#FFE699" fill-rule="evenodd"/><path d="M164.5 300.699C164.5 297.845 166.813 295.532 169.667 295.532L280.333 295.532C283.187 295.532 285.5 297.845 285.5 300.699L285.5 321.368C285.5 324.222 283.187 326.535 280.333 326.535L169.667 326.535C166.813 326.535 164.5 324.222 164.5 321.368Z" stroke="#7F7F7F" stroke-width="1.33357" stroke-miterlimit="8" fill="#FFF2CC" fill-rule="evenodd"/><text font-family="Calibri,Calibri_MSFontService,sans-serif" font-weight="400" font-size="19" transform="matrix(1 0 0 1.00011 184.414 316)">Functional</text><path d="M27.5 260.695C27.5 257.841 29.8132 255.528 32.6667 255.528L144.333 255.528C147.187 255.528 149.5 257.841 149.5 260.695L149.5 281.364C149.5 284.217 147.187 286.531 144.333 286.531L32.6667 286.531C29.8132 286.531 27.5 284.217 27.5 281.364Z" stroke="#7F7F7F" stroke-width="1.33357" stroke-miterlimit="8" fill="#FFF2CC" fill-rule="evenodd"/><text font-family="Calibri,Calibri_MSFontService,sans-serif" font-weight="400" font-size="19" transform="matrix(1 0 0 1.00011 53.449 276)">Common</text><path d="M162.5 260.695C162.5 257.841 164.813 255.528 167.667 255.528L281.333 255.528C284.187 255.528 286.5 257.841 286.5 260.695L286.5 281.364C286.5 284.217 284.187 286.531 281.333 286.531L167.667 286.531C164.813 286.531 162.5 284.217 162.5 281.364Z" stroke="#7F7F7F" stroke-width="1.33357" stroke-miterlimit="8" fill="#FFF2CC" fill-rule="evenodd"/><text font-family="Calibri,Calibri_MSFontService,sans-serif" font-weight="400" font-size="19" transform="matrix(1 0 0 1.00011 177.764 276)">Convolution</text><path d="M297.5 261.695C297.5 258.841 299.813 256.528 302.667 256.528L414.333 256.528C417.187 256.528 419.5 258.841 419.5 261.695L419.5 282.364C419.5 285.218 417.187 287.531 414.333 287.531L302.667 287.531C299.813 287.531 297.5 285.218 297.5 282.364Z" stroke="#7F7F7F" stroke-width="1.33357" stroke-miterlimit="8" fill="#FFF2CC" fill-rule="evenodd"/><text font-family="Calibri,Calibri_MSFontService,sans-serif" font-weight="400" font-size="19" transform="matrix(1 0 0 1.00011 326.139 277)">Readout</text><path d="M26.5 300.699C26.5 297.845 28.8133 295.532 31.6668 295.532L145.333 295.532C148.187 295.532 150.5 297.845 150.5 300.699L150.5 321.368C150.5 324.222 148.187 326.535 145.333 326.535L31.6668 326.535C28.8133 326.535 26.5 324.222 26.5 321.368Z" stroke="#7F7F7F" stroke-width="1.33357" stroke-miterlimit="8" fill="#FFF2CC" fill-rule="evenodd"/><text font-family="Calibri,Calibri_MSFontService,sans-serif" font-weight="400" font-size="19" transform="matrix(1 0 0 1.00011 59.8144 316)">Pooling</text><path d="M297.5 300.533C297.5 297.771 299.739 295.532 302.5 295.532L413.5 295.532C416.261 295.532 418.5 297.771 418.5 300.533L418.5 320.535C418.5 323.296 416.261 325.535 413.5 325.535L302.5 325.535C299.739 325.535 297.5 323.296 297.5 320.535Z" stroke="#7F7F7F" stroke-width="1.33357" stroke-miterlimit="8" fill="#FFF2CC" fill-rule="evenodd"/><text font-family="Calibri,Calibri_MSFontService,sans-serif" font-weight="400" font-size="19" transform="matrix(1 0 0 1.00011 339.746 316)">Flow</text><path d="M17.5 132.058C17.5 125.682 22.668 120.513 29.0432 120.513L915.957 120.513C922.332 120.513 927.5 125.682 927.5 132.058L927.5 206.979C927.5 213.355 922.332 218.524 915.957 218.524L29.0432 218.524C22.668 218.524 17.5 213.355 17.5 206.979Z" stroke="#7F7F7F" stroke-width="1.33357" stroke-miterlimit="8" fill="#BDD7EE" fill-rule="evenodd"/><path d="M29.5 137.682C29.5 134.828 31.8132 132.514 34.6668 132.514L202.333 132.514C205.187 132.514 207.5 134.828 207.5 137.682L207.5 158.35C207.5 161.204 205.187 163.518 202.333 163.518L34.6668 163.518C31.8132 163.518 29.5 161.204 29.5 158.35Z" stroke="#7F7F7F" stroke-width="1.33357" stroke-miterlimit="8" fill="#DEEBF7" fill-rule="evenodd"/><text font-family="Calibri,Calibri_MSFontService,sans-serif" font-weight="400" font-size="19" transform="matrix(1 0 0 1.00011 44.0578 153)">Property Prediction</text><path d="M225.5 137.682C225.5 134.828 227.813 132.514 230.667 132.514L539.333 132.514C542.187 132.514 544.5 134.828 544.5 137.682L544.5 158.35C544.5 161.204 542.187 163.518 539.333 163.518L230.667 163.518C227.813 163.518 225.5 161.204 225.5 158.35Z" stroke="#7F7F7F" stroke-width="1.33357" stroke-miterlimit="8" fill="#DEEBF7" fill-rule="evenodd"/><text font-family="Calibri,Calibri_MSFontService,sans-serif" font-weight="400" font-size="19" transform="matrix(1 0 0 1.00011 243.728 153)">Pretrained Molecular Representation</text><path d="M562.5 137.682C562.5 134.828 564.813 132.514 567.667 132.514L910.333 132.514C913.187 132.514 915.5 134.828 915.5 137.682L915.5 158.35C915.5 161.204 913.187 163.518 910.333 163.518L567.667 163.518C564.813 163.518 562.5 161.204 562.5 158.35Z" stroke="#7F7F7F" stroke-width="1.33357" stroke-miterlimit="8" fill="#DEEBF7" fill-rule="evenodd"/><text font-family="Calibri,Calibri_MSFontService,sans-serif" font-weight="400" font-size="19" transform="matrix(1 0 0 1.00011 580.921 153)">De <tspan font-size="19" x="25.0044" y="0">Novo </tspan><tspan font-size="19" x="69.0922" y="0">Molecule Design </tspan><tspan font-size="19" x="199.448" y="0">&amp; </tspan>Optimization</text><path d="M29.5 180.686C29.5 177.832 31.8132 175.519 34.6667 175.519L335.333 175.519C338.187 175.519 340.5 177.832 340.5 180.686L340.5 201.355C340.5 204.209 338.187 206.522 335.333 206.522L34.6667 206.522C31.8132 206.522 29.5 204.209 29.5 201.355Z" stroke="#7F7F7F" stroke-width="1.33357" stroke-miterlimit="8" fill="#DEEBF7" fill-rule="evenodd"/><text font-family="Calibri,Calibri_MSFontService,sans-serif" font-weight="400" font-size="19" transform="matrix(1 0 0 1.00011 44.4015 196)">Reaction Prediction &amp; Retrosynthesis</text><path d="M358.5 180.686C358.5 177.832 360.813 175.519 363.667 175.519L693.333 175.519C696.187 175.519 698.5 177.832 698.5 180.686L698.5 201.355C698.5 204.209 696.187 206.522 693.333 206.522L363.667 206.522C360.813 206.522 358.5 204.209 358.5 201.355Z" stroke="#7F7F7F" stroke-width="1.33357" stroke-miterlimit="8" fill="#DEEBF7" fill-rule="evenodd"/><text font-family="Calibri,Calibri_MSFontService,sans-serif" font-weight="400" font-size="19" transform="matrix(1 0 0 1.00011 375.836 196)">Biomedical Knowledge Graph Reasoning<tspan font-size="27" x="411.28" y="-3.99957">......</tspan></text><path d="M456.5 255.6C456.5 249.484 461.457 244.526 467.572 244.526L917.428 244.526C923.543 244.526 928.5 249.484 928.5 255.6L928.5 327.463C928.5 333.579 923.543 338.537 917.428 338.537L467.572 338.537C461.457 338.537 456.5 333.579 456.5 327.463Z" stroke="#7F7F7F" stroke-width="1.33357" stroke-miterlimit="8" fill="#FFE699" fill-rule="evenodd"/><path d="M569.5 301.699C569.5 298.846 571.813 296.532 574.667 296.532L664.333 296.532C667.187 296.532 669.5 298.846 669.5 301.699L669.5 322.368C669.5 325.222 667.187 327.535 664.333 327.535L574.667 327.535C571.813 327.535 569.5 325.222 569.5 322.368Z" stroke="#7F7F7F" stroke-width="1.33357" stroke-miterlimit="8" fill="#FFF2CC" fill-rule="evenodd"/><text font-family="Calibri,Calibri_MSFontService,sans-serif" font-weight="400" font-size="19" transform="matrix(1 0 0 1.00011 580.948 317)">InfoGraph</text><path d="M569.5 260.862C569.5 257.916 571.888 255.528 574.833 255.528L642.167 255.528C645.112 255.528 647.5 257.916 647.5 260.862L647.5 282.197C647.5 285.143 645.112 287.531 642.167 287.531L574.833 287.531C571.888 287.531 569.5 285.143 569.5 282.197Z" stroke="#7F7F7F" stroke-width="1.33357" stroke-miterlimit="8" fill="#FFF2CC" fill-rule="evenodd"/><text font-family="Calibri,Calibri_MSFontService,sans-serif" font-weight="400" font-size="19" transform="matrix(1 0 0 1.00011 591.154 277)">GCN</text><path d="M467.5 301.699C467.5 298.845 469.813 296.532 472.667 296.532L550.333 296.532C553.187 296.532 555.5 298.845 555.5 301.699L555.5 322.368C555.5 325.222 553.187 327.535 550.333 327.535L472.667 327.535C469.813 327.535 467.5 325.222 467.5 322.368Z" stroke="#7F7F7F" stroke-width="1.33357" stroke-miterlimit="8" fill="#FFF2CC" fill-rule="evenodd"/><text font-family="Calibri,Calibri_MSFontService,sans-serif" font-weight="400" font-size="19" transform="matrix(1 0 0 1.00011 477.878 317)">GraphAF</text><path d="M683.5 300.699C683.5 297.845 685.813 295.532 688.667 295.532L756.333 295.532C759.187 295.532 761.5 297.845 761.5 300.699L761.5 321.368C761.5 324.222 759.187 326.535 756.333 326.535L688.667 326.535C685.813 326.535 683.5 324.222 683.5 321.368Z" stroke="#7F7F7F" stroke-width="1.33357" stroke-miterlimit="8" fill="#FFF2CC" fill-rule="evenodd"/><text font-family="Calibri,Calibri_MSFontService,sans-serif" font-weight="400" font-size="19" transform="matrix(1 0 0 1.00011 697.113 317)">TransE</text><path d="M660.5 260.862C660.5 257.916 662.888 255.528 665.833 255.528L734.167 255.528C737.112 255.528 739.5 257.916 739.5 260.862L739.5 282.197C739.5 285.143 737.112 287.531 734.167 287.531L665.833 287.531C662.888 287.531 660.5 285.143 660.5 282.197Z" stroke="#7F7F7F" stroke-width="1.33357" stroke-miterlimit="8" fill="#FFF2CC" fill-rule="evenodd"/><text font-family="Calibri,Calibri_MSFontService,sans-serif" font-weight="400" font-size="19" transform="matrix(1 0 0 1.00011 684.115 277)">GAT</text><path d="M467.5 260.695C467.5 257.841 469.813 255.528 472.667 255.528L551.333 255.528C554.187 255.528 556.5 257.841 556.5 260.695L556.5 281.364C556.5 284.217 554.187 286.531 551.333 286.531L472.667 286.531C469.813 286.531 467.5 284.217 467.5 281.364Z" stroke="#7F7F7F" stroke-width="1.33357" stroke-miterlimit="8" fill="#FFF2CC" fill-rule="evenodd"/><text font-family="Calibri,Calibri_MSFontService,sans-serif" font-weight="400" font-size="19" transform="matrix(1 0 0 1.00011 477.968 276)">ChebNet</text><path d="M750.5 260.695C750.5 257.841 752.813 255.528 755.667 255.528L823.333 255.528C826.187 255.528 828.5 257.841 828.5 260.695L828.5 281.364C828.5 284.217 826.187 286.531 823.333 286.531L755.667 286.531C752.813 286.531 750.5 284.217 750.5 281.364Z" stroke="#7F7F7F" stroke-width="1.33357" stroke-miterlimit="8" fill="#FFF2CC" fill-rule="evenodd"/><text font-family="Calibri,Calibri_MSFontService,sans-serif" font-weight="400" font-size="19" transform="matrix(1 0 0 1.00011 764.309 277)">MPNN</text><path d="M841.5 260.862C841.5 257.916 843.888 255.528 846.833 255.528L912.167 255.528C915.112 255.528 917.5 257.916 917.5 260.862L917.5 282.197C917.5 285.143 915.112 287.531 912.167 287.531L846.833 287.531C843.888 287.531 841.5 285.143 841.5 282.197Z" stroke="#7F7F7F" stroke-width="1.33357" stroke-miterlimit="8" fill="#FFF2CC" fill-rule="evenodd"/><text font-family="Calibri,Calibri_MSFontService,sans-serif" font-weight="400" font-size="19" transform="matrix(1 0 0 1.00011 864.036 277)">NFP</text><path d="M776.5 299.699C776.5 296.845 778.813 294.532 781.667 294.532L850.333 294.532C853.187 294.532 855.5 296.845 855.5 299.699L855.5 320.368C855.5 323.222 853.187 325.535 850.333 325.535L781.667 325.535C778.813 325.535 776.5 323.222 776.5 320.368Z" stroke="#7F7F7F" stroke-width="1.33357" stroke-miterlimit="8" fill="#FFF2CC" fill-rule="evenodd"/><text font-family="Calibri,Calibri_MSFontService,sans-serif" font-weight="400" font-size="19" transform="matrix(1 0 0 1.00011 790.526 316)">RotatE<tspan font-size="27" x="79.8632" y="-4.99946">......</tspan></text><path d="M443.5 106.512 472.5 93.5101 501.5 106.512 487 106.512 487 119.513 458 119.513 458 106.512Z" stroke="#7F7F7F" stroke-width="1.33357" stroke-miterlimit="8" fill="#E7E6E6" fill-rule="evenodd"/><path d="M17.5 31.7531C17.5 20.016 27.0138 10.5011 38.7497 10.5011L907.25 10.5011C918.986 10.5011 928.5 20.016 928.5 31.7531L928.5 71.258C928.5 82.9951 918.986 92.51 907.25 92.51L38.7497 92.51C27.0138 92.51 17.5 82.9951 17.5 71.258Z" stroke="#7F7F7F" stroke-width="1.33357" stroke-miterlimit="8" fill="#E7E6E6" fill-rule="evenodd"/><text font-family="Calibri,Calibri_MSFontService,sans-serif" font-weight="400" font-size="19" transform="matrix(1 0 0 1.00011 456.07 34)">Engine</text><path d="M32.5 53.6726C32.5 50.8187 34.8132 48.5052 37.6668 48.5052L134.333 48.5052C137.187 48.5052 139.5 50.8187 139.5 53.6726L139.5 74.3413C139.5 77.1951 137.187 79.5086 134.333 79.5086L37.6668 79.5086C34.8132 79.5086 32.5 77.1951 32.5 74.3413Z" stroke="#7F7F7F" stroke-width="1.33357" stroke-miterlimit="8" fill="#F2F2F2" fill-rule="evenodd"/><text font-family="Consolas,Consolas_MSFontService,sans-serif" font-weight="400" font-size="16" transform="matrix(1 0 0 1.00011 54.5724 69)">train()</text><path d="M161.5 53.8392C161.5 50.8933 163.888 48.5052 166.833 48.5052L263.167 48.5052C266.112 48.5052 268.5 50.8933 268.5 53.8392L268.5 75.1747C268.5 78.1206 266.112 80.5087 263.167 80.5087L166.833 80.5087C163.888 80.5087 161.5 78.1206 161.5 75.1747Z" stroke="#7F7F7F" stroke-width="1.33357" stroke-miterlimit="8" fill="#F2F2F2" fill-rule="evenodd"/><text font-family="Consolas,Consolas_MSFontService,sans-serif" font-weight="400" font-size="16" transform="matrix(1 0 0 1.00011 170.367 70)">e<tspan font-size="16" x="8.83488" y="0">valuate()</tspan></text><path d="M290.5 53.6726C290.5 50.8187 292.813 48.5052 295.667 48.5052L392.333 48.5052C395.187 48.5052 397.5 50.8187 397.5 53.6726L397.5 74.3413C397.5 77.1951 395.187 79.5086 392.333 79.5086L295.667 79.5086C292.813 79.5086 290.5 77.1951 290.5 74.3413Z" stroke="#7F7F7F" stroke-width="1.33357" stroke-miterlimit="8" fill="#F2F2F2" fill-rule="evenodd"/><text font-family="Consolas,Consolas_MSFontService,sans-serif" font-weight="400" font-size="16" transform="matrix(1 0 0 1.00011 317.083 69)">load()</text><path d="M419.5 53.8392C419.5 50.8933 421.888 48.5052 424.833 48.5052L521.167 48.5052C524.112 48.5052 526.5 50.8933 526.5 53.8392L526.5 75.1747C526.5 78.1206 524.112 80.5087 521.167 80.5087L424.833 80.5087C421.888 80.5087 419.5 78.1206 419.5 75.1747Z" stroke="#7F7F7F" stroke-width="1.33357" stroke-miterlimit="8" fill="#F2F2F2" fill-rule="evenodd"/><text font-family="Consolas,Consolas_MSFontService,sans-serif" font-weight="400" font-size="16" transform="matrix(1 0 0 1.00011 446.129 70)">save()</text><path d="M548.5 53.8393C548.5 50.8934 550.888 48.5052 553.833 48.5052L691.167 48.5052C694.112 48.5052 696.5 50.8934 696.5 53.8393L696.5 75.1747C696.5 78.1206 694.112 80.5087 691.167 80.5087L553.833 80.5087C550.888 80.5087 548.5 78.1206 548.5 75.1747Z" stroke="#7F7F7F" stroke-width="1.33357" stroke-miterlimit="8" fill="#F2F2F2" fill-rule="evenodd"/><text font-family="Consolas,Consolas_MSFontService,sans-serif" font-weight="400" font-size="16" transform="matrix(1 0 0 1.00011 564.331 70)">config_dict<tspan font-size="16" x="97.1838" y="0">()</tspan></text><path d="M719.5 53.6725C719.5 50.8187 721.813 48.5052 724.667 48.5052L907.333 48.5052C910.187 48.5052 912.5 50.8187 912.5 53.6725L912.5 74.3413C912.5 77.1951 910.187 79.5086 907.333 79.5086L724.667 79.5086C721.813 79.5086 719.5 77.1951 719.5 74.3413Z" stroke="#7F7F7F" stroke-width="1.33357" stroke-miterlimit="8" fill="#F2F2F2" fill-rule="evenodd"/><text font-family="Consolas,Consolas_MSFontService,sans-serif" font-weight="400" font-size="16" transform="matrix(1 0 0 1.00011 735.821 69)">load_config_dict()</text></g></svg>