<svg width="945" height="586" xmlns="http://www.w3.org/2000/svg" xmlns:xlink="http://www.w3.org/1999/xlink" overflow="hidden"><defs><clipPath id="clip0"><rect x="0" y="0" width="945" height="586"/></clipPath></defs><g clip-path="url(#clip0)"><rect x="0" y="0" width="945" height="586.063" fill="#FFFFFF"/><path d="M192.5 228.525 221.5 215.523 250.5 228.525 236 228.525 236 241.526 207 241.526 207 228.525Z" stroke="#7F7F7F" stroke-width="1.33357" stroke-miterlimit="8" fill="#E7E6E6" fill-rule="evenodd"/><path d="M191.5 348.538 220.5 335.536 249.5 348.538 235 348.538 235 361.539 206 361.539 206 348.538Z" stroke="#7F7F7F" stroke-width="1.33357" stroke-miterlimit="8" fill="#E7E6E6" fill-rule="evenodd"/><path d="M696.5 229.525 725 216.523 753.5 229.525 739.25 229.525 739.25 242.526 710.75 242.526 710.75 229.525Z" stroke="#7F7F7F" stroke-width="1.33357" stroke-miterlimit="8" fill="#E7E6E6" fill-rule="evenodd"/><path d="M443.5 260.528 456.5 289.031 443.5 317.534 443.5 303.283 430.5 303.283 430.5 274.78 443.5 274.78Z" stroke="#7F7F7F" stroke-width="1.33371" stroke-miterlimit="8" fill="#E7E6E6" fill-rule="evenodd"/><path d="M191.5 506.555 220.5 493.553 249.5 506.555 235 506.555 235 519.556 206 519.556 206 506.555Z" stroke="#7F7F7F" stroke-width="1.33357" stroke-miterlimit="8" fill="#E7E6E6" fill-rule="evenodd"/><path d="M444.5 399.543 457.5 428.046 444.5 456.549 444.5 442.298 431.5 442.298 431.5 413.795 444.5 413.795Z" stroke="#7F7F7F" stroke-width="1.33371" stroke-miterlimit="8" fill="#E7E6E6" fill-rule="evenodd"/><path d="M685.5 399.543 698.5 428.046 685.5 456.549 685.5 442.298 672.5 442.298 672.5 413.795 685.5 413.795Z" stroke="#7F7F7F" stroke-width="1.33371" stroke-miterlimit="8" fill="#E7E6E6" fill-rule="evenodd"/><path d="M13.5 529.224C13.5 524.437 17.3801 520.556 22.1665 520.556L636.833 520.556C641.62 520.556 645.5 524.437 645.5 529.224L645.5 563.894C645.5 568.681 641.62 572.562 636.833 572.562L22.1665 572.562C17.3801 572.562 13.5 568.681 13.5 563.894Z" stroke="#7F7F7F" stroke-width="1.33357" stroke-miterlimit="8" fill="#E7E6E6" fill-rule="evenodd"/><path d="M26.5 536.392C26.5 533.722 28.664 531.557 31.3335 531.557L195.667 531.557C198.336 531.557 200.5 533.722 200.5 536.392L200.5 555.727C200.5 558.396 198.336 560.561 195.667 560.561L31.3335 560.561C28.664 560.561 26.5 558.396 26.5 555.727Z" stroke="#7F7F7F" stroke-width="1.33357" stroke-miterlimit="8" fill="#F2F2F2" fill-rule="evenodd"/><text font-family="Calibri,Calibri_MSFontService,sans-serif" font-weight="400" font-size="19" transform="matrix(1 0 0 1.00011 83.2033 552)">PyTorch</text><path d="M242.5 537.391C242.5 534.722 244.664 532.558 247.333 532.558L412.667 532.558C415.336 532.558 417.5 534.722 417.5 537.391L417.5 556.727C417.5 559.396 415.336 561.561 412.667 561.561L247.333 561.561C244.664 561.561 242.5 559.396 242.5 556.727Z" stroke="#7F7F7F" stroke-width="1.33357" stroke-miterlimit="8" fill="#F2F2F2" fill-rule="evenodd"/><text font-family="Calibri,Calibri_MSFontService,sans-serif" font-weight="400" font-size="19" transform="matrix(1 0 0 1.00011 280.578 552)">torch<tspan font-size="19" x="39.8871" y="0">-</tspan><tspan font-size="19" x="45.5547" y="0">scatter</tspan></text><path d="M458.5 538.392C458.5 535.722 460.664 533.558 463.333 533.558L628.667 533.558C631.336 533.558 633.5 535.722 633.5 538.392L633.5 557.727C633.5 560.397 631.336 562.561 628.667 562.561L463.333 562.561C460.664 562.561 458.5 560.397 458.5 557.727Z" stroke="#7F7F7F" stroke-width="1.33357" stroke-miterlimit="8" fill="#F2F2F2" fill-rule="evenodd"/><text font-family="Calibri,Calibri_MSFontService,sans-serif" font-weight="400" font-size="19" transform="matrix(1 0 0 1.00011 524.629 553)">RDKit</text><path d="M14.5 383.542C14.5 371.39 24.35 361.539 36.5006 361.539L409.499 361.539C421.65 361.539 431.5 371.39 431.5 383.542L431.5 471.55C431.5 483.702 421.65 493.553 409.499 493.553L36.5006 493.553C24.35 493.553 14.5 483.702 14.5 471.55Z" stroke="#7F7F7F" stroke-width="1.33357" stroke-miterlimit="8" fill="#F8CBAD" fill-rule="evenodd"/><path d="M210.5 422.879 235.013 422.879 235.013 424.213 210.5 424.213ZM227.348 418.302 236.337 423.546 227.348 428.79C227.03 428.975 226.622 428.868 226.436 428.55 226.25 428.232 226.358 427.823 226.676 427.638L234.677 422.97 234.677 424.122 226.676 419.454C226.358 419.268 226.251 418.86 226.436 418.542 226.622 418.224 227.03 418.116 227.348 418.302Z" fill="#7F7F7F"/><path d="M235.5 386.097C235.5 378.61 241.569 372.54 249.055 372.54L406.945 372.54C414.431 372.54 420.5 378.61 420.5 386.097L420.5 467.995C420.5 475.483 414.431 481.552 406.945 481.552L249.055 481.552C241.569 481.552 235.5 475.483 235.5 467.995Z" stroke="#7F7F7F" stroke-width="1.33357" stroke-miterlimit="8" fill="#FBE5D6" fill-rule="evenodd"/><text font-family="Calibri,Calibri_MSFontService,sans-serif" font-weight="400" font-size="19" transform="matrix(1 0 0 1.00011 292.243 393)">Molecule</text><path d="M245.5 410.211C245.5 407.633 247.589 405.544 250.167 405.544L406.833 405.544C409.411 405.544 411.5 407.633 411.5 410.211L411.5 428.879C411.5 431.457 409.411 433.547 406.833 433.547L250.167 433.547C247.589 433.547 245.5 431.457 245.5 428.879Z" stroke="#7F7F7F" stroke-width="1.33357" stroke-miterlimit="8" fill="#F2F2F2" fill-rule="evenodd"/><text font-family="Consolas,Consolas_MSFontService,sans-serif" font-weight="400" font-size="16" transform="matrix(1 0 0 1.00011 270.805 425)">from_smiles()</text><path d="M246.5 447.382C246.5 444.712 248.664 442.548 251.333 442.548L407.667 442.548C410.336 442.548 412.5 444.712 412.5 447.382L412.5 466.717C412.5 469.387 410.336 471.551 407.667 471.551L251.333 471.551C248.664 471.551 246.5 469.387 246.5 466.717Z" stroke="#7F7F7F" stroke-width="1.33357" stroke-miterlimit="8" fill="#F2F2F2" fill-rule="evenodd"/><text font-family="Consolas,Consolas_MSFontService,sans-serif" font-weight="400" font-size="16" transform="matrix(1 0 0 1.00011 280.239 462)">visualize()</text><path d="M24.5 385.221C24.5 377.665 30.6246 371.54 38.1796 371.54L196.82 371.54C204.375 371.54 210.5 377.665 210.5 385.221L210.5 467.871C210.5 475.427 204.375 481.552 196.82 481.552L38.1796 481.552C30.6246 481.552 24.5 475.427 24.5 467.871Z" stroke="#7F7F7F" stroke-width="1.33357" stroke-miterlimit="8" fill="#FBE5D6" fill-rule="evenodd"/><text font-family="Calibri,Calibri_MSFontService,sans-serif" font-weight="400" font-size="19" transform="matrix(1 0 0 1.00011 93.8212 392)">Graph</text><path d="M35.5 409.211C35.5 406.633 37.5894 404.544 40.1669 404.544L196.833 404.544C199.411 404.544 201.5 406.633 201.5 409.211L201.5 427.879C201.5 430.457 199.411 432.547 196.833 432.547L40.1669 432.547C37.5894 432.547 35.5 430.457 35.5 427.879Z" stroke="#7F7F7F" stroke-width="1.33357" stroke-miterlimit="8" fill="#F2F2F2" fill-rule="evenodd"/><text font-family="Consolas,Consolas_MSFontService,sans-serif" font-weight="400" font-size="16" transform="matrix(1 0 0 1.00011 69.0428 424)">node_mask<tspan font-size="16" x="79.514" y="0">()</tspan></text><path d="M35.5 446.382C35.5 443.712 37.664 441.548 40.3335 441.548L196.667 441.548C199.336 441.548 201.5 443.712 201.5 446.382L201.5 465.717C201.5 468.387 199.336 470.551 196.667 470.551L40.3335 470.551C37.664 470.551 35.5 468.387 35.5 465.717Z" stroke="#7F7F7F" stroke-width="1.33357" stroke-miterlimit="8" fill="#F2F2F2" fill-rule="evenodd"/><text font-family="Consolas,Consolas_MSFontService,sans-serif" font-weight="400" font-size="16" transform="matrix(1 0 0 1.00011 69.6419 461)">edge_mask()</text><path d="M699.5 377.373C699.5 368.628 706.588 361.539 715.332 361.539L914.668 361.539C923.412 361.539 930.5 368.628 930.5 377.373L930.5 478.72C930.5 487.464 923.412 494.553 914.668 494.553L715.332 494.553C706.588 494.553 699.5 487.464 699.5 478.72Z" stroke="#7F7F7F" stroke-width="1.33357" stroke-miterlimit="8" fill="#C5E0B4" fill-rule="evenodd"/><path d="M708.5 374.874C708.5 371.928 710.888 369.54 713.833 369.54L915.167 369.54C918.112 369.54 920.5 371.928 920.5 374.874L920.5 396.209C920.5 399.155 918.112 401.543 915.167 401.543L713.833 401.543C710.888 401.543 708.5 399.155 708.5 396.209Z" stroke="#7F7F7F" stroke-width="1.33357" stroke-miterlimit="8" fill="#E2F0D9" fill-rule="evenodd"/><text font-family="Calibri,Calibri_MSFontService,sans-serif" font-weight="400" font-size="19" transform="matrix(1 0 0 1.00011 743.564 391)">Molecule Datasets</text><path d="M708.5 416.878C708.5 413.933 710.888 411.544 713.833 411.544L915.167 411.544C918.112 411.544 920.5 413.933 920.5 416.878L920.5 438.214C920.5 441.16 918.112 443.548 915.167 443.548L713.833 443.548C710.888 443.548 708.5 441.16 708.5 438.214Z" stroke="#7F7F7F" stroke-width="1.33357" stroke-miterlimit="8" fill="#E2F0D9" fill-rule="evenodd"/><text font-family="Calibri,Calibri_MSFontService,sans-serif" font-weight="400" font-size="19" transform="matrix(1 0 0 1.00011 723.464 433)">Retrosynthesis Datasets</text><path d="M708.5 459.717C708.5 456.863 710.813 454.549 713.667 454.549L916.333 454.549C919.187 454.549 921.5 456.863 921.5 459.717L921.5 480.385C921.5 483.239 919.187 485.552 916.333 485.552L713.667 485.552C710.813 485.552 708.5 483.239 708.5 480.385Z" stroke="#7F7F7F" stroke-width="1.33357" stroke-miterlimit="8" fill="#E2F0D9" fill-rule="evenodd"/><text font-family="Calibri,Calibri_MSFontService,sans-serif" font-weight="400" font-size="19" transform="matrix(1 0 0 1.00011 743.805 476)">Knowledge Graphs</text><path d="M458.5 384.375C458.5 372.316 468.275 362.539 480.334 362.539L650.666 362.539C662.725 362.539 672.5 372.316 672.5 384.375L672.5 471.717C672.5 483.777 662.725 493.553 650.666 493.553L480.334 493.553C468.275 493.553 458.5 483.777 458.5 471.717Z" stroke="#7F7F7F" stroke-width="1.33357" stroke-miterlimit="8" fill="#C5E0B4" fill-rule="evenodd"/><path d="M469.5 384.208C469.5 379.974 472.933 376.541 477.167 376.541L654.833 376.541C659.068 376.541 662.5 379.974 662.5 384.208L662.5 414.878C662.5 419.113 659.068 422.546 654.833 422.546L477.167 422.546C472.933 422.546 469.5 419.113 469.5 414.878Z" stroke="#7F7F7F" stroke-width="1.33357" stroke-miterlimit="8" fill="#E2F0D9" fill-rule="evenodd"/><text font-family="Calibri,Calibri_MSFontService,sans-serif" font-weight="400" font-size="16" transform="matrix(1 0 0 1.00011 491.107 405)">Graph Transformations</text><path d="M469.5 443.215C469.5 438.98 472.933 435.547 477.167 435.547L655.833 435.547C660.067 435.547 663.5 438.98 663.5 443.215L663.5 473.884C663.5 478.119 660.067 481.552 655.833 481.552L477.167 481.552C472.933 481.552 469.5 478.119 469.5 473.884Z" stroke="#7F7F7F" stroke-width="1.33357" stroke-miterlimit="8" fill="#E2F0D9" fill-rule="evenodd"/><text font-family="Calibri,Calibri_MSFontService,sans-serif" font-weight="400" font-size="16" transform="matrix(1 0 0 1.00011 481.103 463)">Molecule Transformations</text><path d="M18.5 252.6C18.5 246.484 23.4572 241.526 29.5722 241.526L419.428 241.526C425.543 241.526 430.5 246.484 430.5 252.6L430.5 324.463C430.5 330.579 425.543 335.536 419.428 335.536L29.5722 335.536C23.4572 335.536 18.5 330.579 18.5 324.463Z" stroke="#7F7F7F" stroke-width="1.33357" stroke-miterlimit="8" fill="#FFE699" fill-rule="evenodd"/><path d="M164.5 297.866C164.5 294.92 166.888 292.532 169.833 292.532L281.167 292.532C284.112 292.532 286.5 294.92 286.5 297.866L286.5 319.201C286.5 322.147 284.112 324.535 281.167 324.535L169.833 324.535C166.888 324.535 164.5 322.147 164.5 319.201Z" stroke="#7F7F7F" stroke-width="1.33357" stroke-miterlimit="8" fill="#FFF2CC" fill-rule="evenodd"/><text font-family="Calibri,Calibri_MSFontService,sans-serif" font-weight="400" font-size="19" transform="matrix(1 0 0 1.00011 185.062 314)">Functional</text><path d="M28.5 258.695C28.5 255.841 30.8133 253.527 33.6668 253.527L144.333 253.527C147.187 253.527 149.5 255.841 149.5 258.695L149.5 279.363C149.5 282.217 147.187 284.531 144.333 284.531L33.6668 284.531C30.8133 284.531 28.5 282.217 28.5 279.363Z" stroke="#7F7F7F" stroke-width="1.33357" stroke-miterlimit="8" fill="#FFF2CC" fill-rule="evenodd"/><text font-family="Calibri,Calibri_MSFontService,sans-serif" font-weight="400" font-size="19" transform="matrix(1 0 0 1.00011 54.0971 274)">Common</text><path d="M162.5 258.695C162.5 255.841 164.813 253.527 167.667 253.527L282.333 253.527C285.187 253.527 287.5 255.841 287.5 258.695L287.5 279.363C287.5 282.217 285.187 284.531 282.333 284.531L167.667 284.531C164.813 284.531 162.5 282.217 162.5 279.363Z" stroke="#7F7F7F" stroke-width="1.33357" stroke-miterlimit="8" fill="#FFF2CC" fill-rule="evenodd"/><text font-family="Calibri,Calibri_MSFontService,sans-serif" font-weight="400" font-size="19" transform="matrix(1 0 0 1.00011 178.412 274)">Convolution</text><path d="M298.5 259.528C298.5 256.766 300.739 254.528 303.5 254.528L415.5 254.528C418.261 254.528 420.5 256.766 420.5 259.528L420.5 279.53C420.5 282.292 418.261 284.531 415.5 284.531L303.5 284.531C300.739 284.531 298.5 282.292 298.5 279.53Z" stroke="#7F7F7F" stroke-width="1.33357" stroke-miterlimit="8" fill="#FFF2CC" fill-rule="evenodd"/><text font-family="Calibri,Calibri_MSFontService,sans-serif" font-weight="400" font-size="19" transform="matrix(1 0 0 1.00011 326.787 275)">Readout</text><path d="M27.5 298.699C27.5 295.845 29.8132 293.532 32.6667 293.532L145.333 293.532C148.187 293.532 150.5 295.845 150.5 298.699L150.5 319.368C150.5 322.222 148.187 324.535 145.333 324.535L32.6667 324.535C29.8132 324.535 27.5 322.222 27.5 319.368Z" stroke="#7F7F7F" stroke-width="1.33357" stroke-miterlimit="8" fill="#FFF2CC" fill-rule="evenodd"/><text font-family="Calibri,Calibri_MSFontService,sans-serif" font-weight="400" font-size="19" transform="matrix(1 0 0 1.00011 60.4625 314)">Pooling</text><path d="M298.5 298.532C298.5 295.771 300.739 293.532 303.5 293.532L414.5 293.532C417.261 293.532 419.5 295.771 419.5 298.532L419.5 318.534C419.5 321.296 417.261 323.535 414.5 323.535L303.5 323.535C300.739 323.535 298.5 321.296 298.5 318.534Z" stroke="#7F7F7F" stroke-width="1.33357" stroke-miterlimit="8" fill="#FFF2CC" fill-rule="evenodd"/><text font-family="Calibri,Calibri_MSFontService,sans-serif" font-weight="400" font-size="19" transform="matrix(1 0 0 1.00011 340.394 314)">Flow</text><path d="M17.5 129.057C17.5 122.681 22.6679 117.513 29.0429 117.513L916.957 117.513C923.332 117.513 928.5 122.681 928.5 129.057L928.5 203.979C928.5 210.355 923.332 215.523 916.957 215.523L29.0429 215.523C22.6679 215.523 17.5 210.355 17.5 203.979Z" stroke="#7F7F7F" stroke-width="1.33357" stroke-miterlimit="8" fill="#BDD7EE" fill-rule="evenodd"/><path d="M29.5 135.681C29.5 132.828 31.8133 130.514 34.6668 130.514L203.333 130.514C206.187 130.514 208.5 132.828 208.5 135.681L208.5 156.35C208.5 159.204 206.187 161.517 203.333 161.517L34.6668 161.517C31.8133 161.517 29.5 159.204 29.5 156.35Z" stroke="#7F7F7F" stroke-width="1.33357" stroke-miterlimit="8" fill="#DEEBF7" fill-rule="evenodd"/><text font-family="Calibri,Calibri_MSFontService,sans-serif" font-weight="400" font-size="19" transform="matrix(1 0 0 1.00011 44.7059 151)">Property Prediction</text><path d="M226.5 134.848C226.5 131.902 228.888 129.514 231.833 129.514L540.167 129.514C543.112 129.514 545.5 131.902 545.5 134.848L545.5 156.183C545.5 159.129 543.112 161.517 540.167 161.517L231.833 161.517C228.888 161.517 226.5 159.129 226.5 156.183Z" stroke="#7F7F7F" stroke-width="1.33357" stroke-miterlimit="8" fill="#DEEBF7" fill-rule="evenodd"/><text font-family="Calibri,Calibri_MSFontService,sans-serif" font-weight="400" font-size="19" transform="matrix(1 0 0 1.00011 244.376 151)">Pretrained Molecular Representation</text><path d="M562.5 134.848C562.5 131.902 564.888 129.514 567.833 129.514L910.167 129.514C913.112 129.514 915.5 131.902 915.5 134.848L915.5 156.184C915.5 159.129 913.112 161.517 910.167 161.517L567.833 161.517C564.888 161.517 562.5 159.129 562.5 156.184Z" stroke="#7F7F7F" stroke-width="1.33357" stroke-miterlimit="8" fill="#DEEBF7" fill-rule="evenodd"/><text font-family="Calibri,Calibri_MSFontService,sans-serif" font-weight="400" font-size="19" transform="matrix(1 0 0 1.00011 582.653 151)">De novo Molecule Design <tspan font-size="19" x="197.281" y="0">&amp; </tspan>Optimization</text><path d="M29.5 177.853C29.5 174.907 31.8878 172.519 34.8333 172.519L258.167 172.519C261.112 172.519 263.5 174.907 263.5 177.853L263.5 199.188C263.5 202.134 261.112 204.522 258.167 204.522L34.8333 204.522C31.8878 204.522 29.5 202.134 29.5 199.188Z" stroke="#7F7F7F" stroke-width="1.33357" stroke-miterlimit="8" fill="#DEEBF7" fill-rule="evenodd"/><text font-family="Calibri,Calibri_MSFontService,sans-serif" font-weight="400" font-size="19" transform="matrix(1 0 0 1.00011 49.6611 194)">De novo Molecule Design</text><path d="M282.5 177.853C282.5 174.907 284.888 172.519 287.833 172.519L627.167 172.519C630.112 172.519 632.5 174.907 632.5 177.853L632.5 199.188C632.5 202.134 630.112 204.522 627.167 204.522L287.833 204.522C284.888 204.522 282.5 202.134 282.5 199.188Z" stroke="#7F7F7F" stroke-width="1.33357" stroke-miterlimit="8" fill="#DEEBF7" fill-rule="evenodd"/><text font-family="Calibri,Calibri_MSFontService,sans-serif" font-weight="400" font-size="19" transform="matrix(1 0 0 1.00011 304.709 194)">Biomedical Knowledge Graph Reasoning<tspan font-size="27" x="453.793" y="-3.99957">......</tspan></text><path d="M457.5 253.6C457.5 247.484 462.457 242.526 468.572 242.526L918.428 242.526C924.543 242.526 929.5 247.484 929.5 253.6L929.5 325.463C929.5 331.579 924.543 336.536 918.428 336.536L468.572 336.536C462.457 336.536 457.5 331.579 457.5 325.463Z" stroke="#7F7F7F" stroke-width="1.33357" stroke-miterlimit="8" fill="#FFE699" fill-rule="evenodd"/><path d="M570.5 298.699C570.5 295.845 572.813 293.532 575.667 293.532L664.333 293.532C667.187 293.532 669.5 295.845 669.5 298.699L669.5 319.368C669.5 322.222 667.187 324.535 664.333 324.535L575.667 324.535C572.813 324.535 570.5 322.222 570.5 319.368Z" stroke="#7F7F7F" stroke-width="1.33357" stroke-miterlimit="8" fill="#FFF2CC" fill-rule="evenodd"/><text font-family="Calibri,Calibri_MSFontService,sans-serif" font-weight="400" font-size="19" transform="matrix(1 0 0 1.00011 581.596 315)">InfoGraph</text><path d="M569.5 258.861C569.5 255.916 571.888 253.527 574.833 253.527L643.167 253.527C646.112 253.527 648.5 255.916 648.5 258.861L648.5 280.197C648.5 283.143 646.112 285.531 643.167 285.531L574.833 285.531C571.888 285.531 569.5 283.143 569.5 280.197Z" stroke="#7F7F7F" stroke-width="1.33357" stroke-miterlimit="8" fill="#FFF2CC" fill-rule="evenodd"/><text font-family="Calibri,Calibri_MSFontService,sans-serif" font-weight="400" font-size="19" transform="matrix(1 0 0 1.00011 591.802 275)">GCN</text><path d="M467.5 298.699C467.5 295.845 469.813 293.532 472.667 293.532L551.333 293.532C554.187 293.532 556.5 295.845 556.5 298.699L556.5 319.368C556.5 322.222 554.187 324.535 551.333 324.535L472.667 324.535C469.813 324.535 467.5 322.222 467.5 319.368Z" stroke="#7F7F7F" stroke-width="1.33357" stroke-miterlimit="8" fill="#FFF2CC" fill-rule="evenodd"/><text font-family="Calibri,Calibri_MSFontService,sans-serif" font-weight="400" font-size="19" transform="matrix(1 0 0 1.00011 478.526 315)">GraphAF</text><path d="M684.5 298.699C684.5 295.845 686.813 293.532 689.667 293.532L756.333 293.532C759.187 293.532 761.5 295.845 761.5 298.699L761.5 319.368C761.5 322.222 759.187 324.535 756.333 324.535L689.667 324.535C686.813 324.535 684.5 322.222 684.5 319.368Z" stroke="#7F7F7F" stroke-width="1.33357" stroke-miterlimit="8" fill="#FFF2CC" fill-rule="evenodd"/><text font-family="Calibri,Calibri_MSFontService,sans-serif" font-weight="400" font-size="19" transform="matrix(1 0 0 1.00011 697.761 315)">TransE</text><path d="M661.5 258.861C661.5 255.916 663.888 253.527 666.833 253.527L734.167 253.527C737.112 253.527 739.5 255.916 739.5 258.861L739.5 280.197C739.5 283.143 737.112 285.531 734.167 285.531L666.833 285.531C663.888 285.531 661.5 283.143 661.5 280.197Z" stroke="#7F7F7F" stroke-width="1.33357" stroke-miterlimit="8" fill="#FFF2CC" fill-rule="evenodd"/><text font-family="Calibri,Calibri_MSFontService,sans-serif" font-weight="400" font-size="19" transform="matrix(1 0 0 1.00011 684.763 275)">GAT</text><path d="M467.5 258.528C467.5 255.766 469.739 253.527 472.5 253.527L552.5 253.527C555.261 253.527 557.5 255.766 557.5 258.528L557.5 278.53C557.5 281.292 555.261 283.531 552.5 283.531L472.5 283.531C469.739 283.531 467.5 281.292 467.5 278.53Z" stroke="#7F7F7F" stroke-width="1.33357" stroke-miterlimit="8" fill="#FFF2CC" fill-rule="evenodd"/><text font-family="Calibri,Calibri_MSFontService,sans-serif" font-weight="400" font-size="19" transform="matrix(1 0 0 1.00011 478.616 274)">ChebNet</text><path d="M750.5 258.695C750.5 255.841 752.813 253.527 755.667 253.527L824.333 253.527C827.187 253.527 829.5 255.841 829.5 258.695L829.5 279.363C829.5 282.217 827.187 284.531 824.333 284.531L755.667 284.531C752.813 284.531 750.5 282.217 750.5 279.363Z" stroke="#7F7F7F" stroke-width="1.33357" stroke-miterlimit="8" fill="#FFF2CC" fill-rule="evenodd"/><text font-family="Calibri,Calibri_MSFontService,sans-serif" font-weight="400" font-size="19" transform="matrix(1 0 0 1.00011 764.957 274)">MPNN</text><path d="M841.5 258.861C841.5 255.916 843.888 253.527 846.833 253.527L913.167 253.527C916.112 253.527 918.5 255.916 918.5 258.861L918.5 280.197C918.5 283.143 916.112 285.531 913.167 285.531L846.833 285.531C843.888 285.531 841.5 283.143 841.5 280.197Z" stroke="#7F7F7F" stroke-width="1.33357" stroke-miterlimit="8" fill="#FFF2CC" fill-rule="evenodd"/><text font-family="Calibri,Calibri_MSFontService,sans-serif" font-weight="400" font-size="19" transform="matrix(1 0 0 1.00011 864.684 275)">NFP</text><path d="M777.5 297.699C777.5 294.845 779.813 292.532 782.667 292.532L851.333 292.532C854.187 292.532 856.5 294.845 856.5 297.699L856.5 318.368C856.5 321.222 854.187 323.535 851.333 323.535L782.667 323.535C779.813 323.535 777.5 321.222 777.5 318.368Z" stroke="#7F7F7F" stroke-width="1.33357" stroke-miterlimit="8" fill="#FFF2CC" fill-rule="evenodd"/><text font-family="Calibri,Calibri_MSFontService,sans-serif" font-weight="400" font-size="19" transform="matrix(1 0 0 1.00011 791.174 314)">RotatE<tspan font-size="27" x="79.8632" y="-4.99946">......</tspan></text><path d="M444.5 104.511 473 91.5099 501.5 104.511 487.25 104.511 487.25 117.513 458.75 117.513 458.75 104.511Z" stroke="#7F7F7F" stroke-width="1.33357" stroke-miterlimit="8" fill="#E7E6E6" fill-rule="evenodd"/><path d="M17.5 32.7162C17.5 21.5519 26.5495 12.5014 37.7126 12.5014L908.287 12.5014C919.451 12.5014 928.5 21.5519 928.5 32.7162L928.5 70.295C928.5 81.4593 919.451 90.5097 908.287 90.5097L37.7126 90.5097C26.5495 90.5097 17.5 81.4593 17.5 70.295Z" stroke="#7F7F7F" stroke-width="1.33357" stroke-miterlimit="8" fill="#E7E6E6" fill-rule="evenodd"/><text font-family="Calibri,Calibri_MSFontService,sans-serif" font-weight="400" font-size="19" transform="matrix(1 0 0 1.00011 456.718 34)">Engine</text><path d="M32.5 51.6723C32.5 48.8185 34.8132 46.505 37.6667 46.505L135.333 46.505C138.187 46.505 140.5 48.8185 140.5 51.6723L140.5 72.341C140.5 75.1949 138.187 77.5083 135.333 77.5083L37.6667 77.5083C34.8132 77.5083 32.5 75.1949 32.5 72.341Z" stroke="#7F7F7F" stroke-width="1.33357" stroke-miterlimit="8" fill="#F2F2F2" fill-rule="evenodd"/><text font-family="Consolas,Consolas_MSFontService,sans-serif" font-weight="400" font-size="16" transform="matrix(1 0 0 1.00011 55.2205 67)">train()</text><path d="M161.5 51.839C161.5 48.8931 163.888 46.505 166.833 46.505L264.167 46.505C267.112 46.505 269.5 48.8931 269.5 51.839L269.5 73.1745C269.5 76.1204 267.112 78.5085 264.167 78.5085L166.833 78.5085C163.888 78.5085 161.5 76.1204 161.5 73.1745Z" stroke="#7F7F7F" stroke-width="1.33357" stroke-miterlimit="8" fill="#F2F2F2" fill-rule="evenodd"/><text font-family="Consolas,Consolas_MSFontService,sans-serif" font-weight="400" font-size="16" transform="matrix(1 0 0 1.00011 171.015 67)">evaluate()</text><path d="M290.5 51.6723C290.5 48.8185 292.813 46.505 295.667 46.505L393.333 46.505C396.187 46.505 398.5 48.8185 398.5 51.6723L398.5 72.341C398.5 75.1949 396.187 77.5083 393.333 77.5083L295.667 77.5083C292.813 77.5083 290.5 75.1949 290.5 72.341Z" stroke="#7F7F7F" stroke-width="1.33357" stroke-miterlimit="8" fill="#F2F2F2" fill-rule="evenodd"/><text font-family="Consolas,Consolas_MSFontService,sans-serif" font-weight="400" font-size="16" transform="matrix(1 0 0 1.00011 317.731 67)">load()</text><path d="M420.5 51.8391C420.5 48.8931 422.888 46.505 425.833 46.505L522.167 46.505C525.112 46.505 527.5 48.8931 527.5 51.8391L527.5 73.1744C527.5 76.1204 525.112 78.5085 522.167 78.5085L425.833 78.5085C422.888 78.5085 420.5 76.1204 420.5 73.1744Z" stroke="#7F7F7F" stroke-width="1.33357" stroke-miterlimit="8" fill="#F2F2F2" fill-rule="evenodd"/><text font-family="Consolas,Consolas_MSFontService,sans-serif" font-weight="400" font-size="16" transform="matrix(1 0 0 1.00011 446.777 67)">save()</text><path d="M549.5 51.839C549.5 48.8931 551.888 46.505 554.833 46.505L691.167 46.505C694.112 46.505 696.5 48.8931 696.5 51.839L696.5 73.1745C696.5 76.1204 694.112 78.5085 691.167 78.5085L554.833 78.5085C551.888 78.5085 549.5 76.1204 549.5 73.1745Z" stroke="#7F7F7F" stroke-width="1.33357" stroke-miterlimit="8" fill="#F2F2F2" fill-rule="evenodd"/><text font-family="Consolas,Consolas_MSFontService,sans-serif" font-weight="400" font-size="16" transform="matrix(1 0 0 1.00011 564.98 67)">config_dict<tspan font-size="16" x="97.1838" y="0">()</tspan></text><path d="M719.5 51.6723C719.5 48.8185 721.813 46.505 724.667 46.505L908.333 46.505C911.187 46.505 913.5 48.8185 913.5 51.6723L913.5 72.341C913.5 75.1949 911.187 77.5083 908.333 77.5083L724.667 77.5083C721.813 77.5083 719.5 75.1949 719.5 72.341Z" stroke="#7F7F7F" stroke-width="1.33357" stroke-miterlimit="8" fill="#F2F2F2" fill-rule="evenodd"/><text font-family="Consolas,Consolas_MSFontService,sans-serif" font-weight="400" font-size="16" transform="matrix(1 0 0 1.00011 736.469 67)">load_config_dict()</text></g></svg>